<svg version="1.1" preserveAspectRatio="none" xmlns="http://www.w3.org/2000/svg" width="500" height="500" viewBox="0 0 500 500"><rect width="100%" height="100%" fill="#121212" fill-opacity="1"/><svg viewBox="1565.2316 1335.4759 141.7874 140" width="333" height="328.8021361559631" x="83.5px" y="85.5989px" xmlns="http://www.w3.org/2000/svg" xmlns:xlink="http://www.w3.org/1999/xlink" preserveAspectRatio="none"><defs></defs><style>.companyName {fill:#F5F5F5;fill-opacity:1;}.icon3 {fill:#00DCFB;fill-opacity:1;}.icon3-str {stroke:#00DCFB;stroke-opacity:1;}.shapeStroke-str {stroke:#F5F5F5;stroke-opacity:1;}</style><g opacity="1" transform="rotate(0 1565.2316 1469.4759)">
<svg width="141.7874" height="6" x="1565.2316" y="1469.4759" version="1.1" preserveAspectRatio="none" viewBox="0 0 141.7874 6">
  <defs><rect x="0" y="0" width="141.7874" height="6" rx="4%" ry="4%" id="id-UPl23ini1677833235377"></rect></defs><use class="companyName shapeStroke-str" style="stroke-width:0;" xlink:href="#id-UPl23ini1677833235377"></use>
</svg>
</g><g opacity="1" transform="rotate(0 1565.2316 1335.4759)">
<svg width="141.7874" height="120" x="1565.2316" y="1335.4759" version="1.1" preserveAspectRatio="none" viewBox="2.8 -28.64 33.84 28.64">
  <g transform="matrix(1 0 0 1 0 0)" class="companyName"><path id="id-D6z1nYkh1" d="M20.32 0L2.80 0L2.80-28.60L7.52-28.60L20.32-28.64Q28.08-28.64 32.36-25Q36.64-21.36 36.64-14.32L36.64-14.32Q36.64-7.28 32.36-3.64Q28.08 0 20.32 0L20.32 0ZM19.88-23.44L19.88-23.44L9.20-23.44L9.20-5.20L19.88-5.20Q24.92-5.20 27.52-7.40Q30.12-9.60 30.12-14.32L30.12-14.32Q30.12-19.08 27.52-21.26Q24.92-23.44 19.88-23.44Z"/></g>
</svg>
</g><g opacity="1" transform="rotate(0 1565.2316 1469.4759)">
<svg width="31.1932" height="6" x="1565.2316" y="1469.4759" version="1.1" preserveAspectRatio="none" viewBox="0 0 31.1932 6">
  <defs><rect x="0" y="0" width="31.1932" height="6" rx="0px" ry="0px" id="id-o0jQam8yd1677833235377"></rect></defs><use class="icon3 shapeStroke-str" style="stroke-width:0;" xlink:href="#id-o0jQam8yd1677833235377"></use>
</svg>
</g></svg></svg>